<svg xmlns="http://www.w3.org/2000/svg" xmlns:xlink="http://www.w3.org/1999/xlink" width="500" zoomAndPan="magnify" viewBox="0 0 375 374.999991" height="500" preserveAspectRatio="xMidYMid meet" version="1.0"><defs><clipPath id="d8a9b8c035"><path d="M 83 4.769531 L 152 4.769531 L 152 80 L 83 80 Z M 83 4.769531 " clip-rule="nonzero"/></clipPath></defs><path stroke-linecap="round" transform="matrix(0.109553, 0, 0, -0.109535, -45.464498, 417.267837)" fill="none" stroke-linejoin="round" d="M 429.583366 503.069258 L 3822.418341 503.069258 " stroke="#24265d" stroke-width="30" stroke-opacity="1" stroke-miterlimit="10"/><path fill="#bbbaba" d="M 291.851562 283.804688 L 291.851562 155.160156 C 291.851562 151.003906 288.480469 147.636719 284.328125 147.636719 L 62.875 147.636719 C 58.714844 147.636719 55.339844 151.003906 55.339844 155.160156 L 55.339844 283.804688 L 291.851562 283.804688 " fill-opacity="1" fill-rule="nonzero"/><path stroke-linecap="round" transform="matrix(0.109553, 0, 0, -0.109535, -45.464498, 417.267837)" fill="none" stroke-linejoin="round" d="M 3079.021149 1218.450251 L 3079.021149 2392.908988 C 3079.021149 2430.853423 3048.249804 2461.594122 3010.347208 2461.594122 L 988.922986 2461.594122 C 950.949078 2461.594122 920.142077 2430.853423 920.142077 2392.908988 L 920.142077 1218.450251 Z M 3079.021149 1218.450251 " stroke="#24265d" stroke-width="30" stroke-opacity="1" stroke-miterlimit="10"/><path fill="#d5d4d5" d="M 291.851562 283.75 L 291.851562 318.234375 C 291.851562 323.824219 287.324219 328.359375 281.726562 328.359375 L 65.464844 328.359375 C 59.878906 328.359375 55.339844 323.824219 55.339844 318.234375 L 55.339844 283.75 L 291.851562 283.75 " fill-opacity="1" fill-rule="nonzero"/><path stroke-linecap="round" transform="matrix(0.109553, 0, 0, -0.109535, -45.464498, 417.267837)" fill="none" stroke-linejoin="round" d="M 3079.021149 1218.94952 L 3079.021149 904.124824 C 3079.021149 853.092411 3037.695553 811.688755 2986.600145 811.688755 L 1012.563081 811.688755 C 961.574641 811.688755 920.142077 853.092411 920.142077 904.124824 L 920.142077 1218.94952 Z M 3079.021149 1218.94952 " stroke="#24265d" stroke-width="30" stroke-opacity="1" stroke-miterlimit="10"/><path fill="#bbbaba" d="M 227.566406 348.234375 L 227.566406 357.199219 C 227.566406 359.941406 225.335938 362.164062 222.597656 362.164062 L 124.597656 362.164062 C 121.855469 362.164062 119.625 359.941406 119.625 357.199219 L 119.625 348.234375 L 227.566406 348.234375 " fill-opacity="1" fill-rule="nonzero"/><path stroke-linecap="round" transform="matrix(0.109553, 0, 0, -0.109535, -45.464498, 417.267837)" fill="none" stroke-linejoin="round" d="M 2492.226215 630.240176 L 2492.226215 548.395741 C 2492.226215 523.360972 2471.866495 503.069258 2446.871462 503.069258 L 1552.32742 503.069258 C 1527.296731 503.069258 1506.937011 523.360972 1506.937011 548.395741 L 1506.937011 630.240176 Z M 2492.226215 630.240176 " stroke="#24265d" stroke-width="30" stroke-opacity="1" stroke-miterlimit="10"/><path fill="#4f4c4c" d="M 275.355469 283.75 L 71.839844 283.75 L 71.839844 164.621094 L 275.355469 164.621094 L 275.355469 283.75 " fill-opacity="1" fill-rule="nonzero"/><path stroke-linecap="round" transform="matrix(0.109553, 0, 0, -0.109535, -45.464498, 417.267837)" fill="none" stroke-linejoin="round" d="M 2928.444798 1218.94952 L 1070.754084 1218.94952 L 1070.754084 2306.53547 L 2928.444798 2306.53547 Z M 2928.444798 1218.94952 " stroke="#24265d" stroke-width="30" stroke-opacity="1" stroke-miterlimit="10"/><path fill="#918f8f" d="M 227.566406 348.234375 L 119.625 348.234375 C 119.625 348.234375 142.261719 342.078125 142.261719 328.359375 L 204.929688 328.359375 C 204.929688 340.804688 227.566406 348.234375 227.566406 348.234375 " fill-opacity="1" fill-rule="nonzero"/><path stroke-linecap="round" transform="matrix(0.109553, 0, 0, -0.109535, -45.464498, 417.267837)" fill="none" stroke-linejoin="round" d="M 2492.226215 630.240176 L 1506.937011 630.240176 C 1506.937011 630.240176 1713.56499 686.443589 1713.56499 811.688755 L 2285.598236 811.688755 C 2285.598236 698.069421 2492.226215 630.240176 2492.226215 630.240176 Z M 2492.226215 630.240176 " stroke="#24265d" stroke-width="30" stroke-opacity="1" stroke-miterlimit="10"/><path fill="#d5d4d5" d="M 288.800781 362.164062 L 288.800781 356.8125 C 288.800781 352.953125 285.675781 349.832031 281.816406 349.832031 L 69.835938 349.832031 C 65.984375 349.832031 62.859375 352.953125 62.859375 356.8125 L 62.859375 362.164062 L 288.800781 362.164062 " fill-opacity="1" fill-rule="nonzero"/><path stroke-linecap="round" transform="matrix(0.109553, 0, 0, -0.109535, -45.464498, 417.267837)" fill="none" stroke-linejoin="round" d="M 3051.173616 503.069258 L 3051.173616 551.926285 C 3051.173616 587.160404 3022.648615 615.654393 2987.420238 615.654393 L 1052.462427 615.654393 C 1017.305363 615.654393 988.780361 587.160404 988.780361 551.926285 L 988.780361 503.069258 Z M 3051.173616 503.069258 " stroke="#24265d" stroke-width="30" stroke-opacity="1" stroke-miterlimit="10"/><path fill="#918f8f" d="M 338.878906 362.164062 C 338.878906 362.164062 340.148438 344.585938 321.429688 344.585938 C 302.714844 344.585938 303.984375 362.164062 303.984375 362.164062 L 338.878906 362.164062 " fill-opacity="1" fill-rule="nonzero"/><path stroke-linecap="round" transform="matrix(0.109553, 0, 0, -0.109535, -45.464498, 417.267837)" fill="none" stroke-linejoin="round" d="M 3508.286763 503.069258 C 3508.286763 503.069258 3519.875045 663.548544 3349.010287 663.548544 C 3178.181185 663.548544 3189.769467 503.069258 3189.769467 503.069258 Z M 3508.286763 503.069258 " stroke="#24265d" stroke-width="30" stroke-opacity="1" stroke-miterlimit="10"/><path fill="#918f8f" d="M 92.152344 344.03125 L 74.226562 344.03125 L 74.226562 349.71875 L 92.152344 349.71875 L 92.152344 344.03125 " fill-opacity="1" fill-rule="nonzero"/><path stroke-linecap="round" transform="matrix(0.109553, 0, 0, -0.109535, -45.464498, 417.267837)" fill="none" stroke-linejoin="round" d="M 1092.540054 616.688592 L 1256.166593 616.688592 L 1256.166593 668.612557 L 1092.540054 668.612557 Z M 1092.540054 616.688592 " stroke="#24265d" stroke-width="30" stroke-opacity="1" stroke-miterlimit="10"/><path fill="#918f8f" d="M 115.125 344.03125 L 97.191406 344.03125 L 97.191406 349.71875 L 115.125 349.71875 L 115.125 344.03125 " fill-opacity="1" fill-rule="nonzero"/><path stroke-linecap="round" transform="matrix(0.109553, 0, 0, -0.109535, -45.464498, 417.267837)" fill="none" stroke-linejoin="round" d="M 1302.163158 616.688592 L 1465.861009 616.688592 L 1465.861009 668.612557 L 1302.163158 668.612557 Z M 1302.163158 616.688592 " stroke="#24265d" stroke-width="30" stroke-opacity="1" stroke-miterlimit="10"/><path fill="#918f8f" d="M 229.953125 344.03125 L 120.15625 344.03125 L 120.15625 349.71875 L 229.953125 349.71875 L 229.953125 344.03125 " fill-opacity="1" fill-rule="nonzero"/><path stroke-linecap="round" transform="matrix(0.109553, 0, 0, -0.109535, -45.464498, 417.267837)" fill="none" stroke-linejoin="round" d="M 1511.786261 616.688592 L 2514.012184 616.688592 L 2514.012184 668.612557 L 1511.786261 668.612557 Z M 1511.786261 616.688592 " stroke="#24265d" stroke-width="30" stroke-opacity="1" stroke-miterlimit="10"/><path fill="#918f8f" d="M 252.917969 344.03125 L 234.988281 344.03125 L 234.988281 349.71875 L 252.917969 349.71875 L 252.917969 344.03125 " fill-opacity="1" fill-rule="nonzero"/><path stroke-linecap="round" transform="matrix(0.109553, 0, 0, -0.109535, -45.464498, 417.267837)" fill="none" stroke-linejoin="round" d="M 2559.973093 616.688592 L 2723.635288 616.688592 L 2723.635288 668.612557 L 2559.973093 668.612557 Z M 2559.973093 616.688592 " stroke="#24265d" stroke-width="30" stroke-opacity="1" stroke-miterlimit="10"/><path fill="#918f8f" d="M 275.886719 344.03125 L 257.953125 344.03125 L 257.953125 349.71875 L 275.886719 349.71875 L 275.886719 344.03125 " fill-opacity="1" fill-rule="nonzero"/><path stroke-linecap="round" transform="matrix(0.109553, 0, 0, -0.109535, -45.464498, 417.267837)" fill="none" stroke-linejoin="round" d="M 2769.596197 616.688592 L 2933.294048 616.688592 L 2933.294048 668.612557 L 2769.596197 668.612557 Z M 2769.596197 616.688592 " stroke="#24265d" stroke-width="30" stroke-opacity="1" stroke-miterlimit="10"/><path stroke-linecap="round" transform="matrix(0.109553, 0, 0, -0.109535, -45.464498, 417.267837)" fill="none" stroke-linejoin="round" d="M 1101.41846 888.219544 C 1298.134001 888.219544 1500.162323 888.219544 1696.842208 888.219544 " stroke="#24265d" stroke-width="30" stroke-opacity="1" stroke-miterlimit="10"/><path stroke-linecap="round" transform="matrix(0.109553, 0, 0, -0.109535, -45.464498, 417.267837)" fill="none" stroke-linejoin="round" d="M 1813.794713 888.219544 C 1882.896529 888.219544 1951.998345 888.219544 2021.100161 888.219544 " stroke="#24265d" stroke-width="30" stroke-opacity="1" stroke-miterlimit="10"/><path stroke-linecap="round" transform="matrix(0.109553, 0, 0, -0.109535, -45.464498, 417.267837)" fill="none" stroke-linejoin="round" d="M 2169.965012 872.278601 C 2212.50292 872.278601 2249.728047 872.278601 2292.230299 872.278601 " stroke="#24265d" stroke-width="30" stroke-opacity="1" stroke-miterlimit="10"/><path stroke-linecap="round" transform="matrix(0.109553, 0, 0, -0.109535, -45.464498, 417.267837)" fill="none" stroke-linejoin="round" d="M 2542.109311 866.964954 C 2653.713379 866.964954 2765.353103 866.964954 2877.028483 866.964954 " stroke="#24265d" stroke-width="30" stroke-opacity="1" stroke-miterlimit="10"/><path stroke-linecap="round" transform="matrix(0.109553, 0, 0, -0.109535, -45.464498, 417.267837)" fill="none" stroke-linejoin="round" d="M 2850.500232 2078.975843 C 2850.500232 1829.163088 2850.500232 1579.314672 2850.500232 1329.430593 " stroke="#24265d" stroke-width="30" stroke-opacity="1" stroke-miterlimit="10"/><path stroke-linecap="round" transform="matrix(0.109553, 0, 0, -0.109535, -45.464498, 417.267837)" fill="none" stroke-linejoin="round" d="M 2850.500232 2254.468857 C 2850.500232 2233.178606 2850.500232 2211.924016 2850.500232 2190.669426 " stroke="#24265d" stroke-width="30" stroke-opacity="1" stroke-miterlimit="10"/><path stroke-linecap="round" transform="matrix(0.109553, 0, 0, -0.109535, -45.464498, 417.267837)" fill-opacity="1" fill="#ce7a32" fill-rule="nonzero" stroke-linejoin="round" d="M 2740.393727 2257.928078 L 1258.733843 2257.928078 L 1999.563785 3097.698348 Z M 2740.393727 2257.928078 " stroke="#24265d" stroke-width="30" stroke-opacity="1" stroke-miterlimit="10"/><path fill="#b66b2c" d="M 254.753906 268.773438 L 92.433594 268.773438 L 92.433594 170.28125 L 254.753906 170.28125 L 254.753906 268.773438 " fill-opacity="1" fill-rule="nonzero"/><path stroke-linecap="round" transform="matrix(0.109553, 0, 0, -0.109535, -45.464498, 417.267837)" fill="none" stroke-linejoin="round" d="M 2740.393727 1355.677872 L 1258.733843 1355.677872 L 1258.733843 2254.86114 L 2740.393727 2254.86114 Z M 2740.393727 1355.677872 " stroke="#24265d" stroke-width="30" stroke-opacity="1" stroke-miterlimit="10"/><path fill="#d3d2d2" d="M 236.023438 252.867188 L 111.167969 252.867188 L 111.167969 87.699219 L 210.367188 87.699219 L 236.023438 113.34375 L 236.023438 252.867188 " fill-opacity="1" fill-rule="nonzero"/><path stroke-linecap="round" transform="matrix(0.109553, 0, 0, -0.109535, -45.464498, 417.267837)" fill="none" stroke-linejoin="round" d="M 2569.422 1500.893794 L 1429.741226 1500.893794 L 1429.741226 3008.792824 L 2335.231738 3008.792824 L 2569.422 2774.671377 Z M 2569.422 1500.893794 " stroke="#24265d" stroke-width="30" stroke-opacity="1" stroke-miterlimit="10"/><path stroke-linecap="round" transform="matrix(0.109553, 0, 0, -0.109535, -45.464498, 417.267837)" fill-opacity="1" fill="#59c7b5" fill-rule="nonzero" stroke-linejoin="round" d="M 2335.231738 2774.671377 L 2569.422 2774.671377 L 2335.231738 3008.792824 Z M 2335.231738 2774.671377 " stroke="#24265d" stroke-width="30" stroke-opacity="1" stroke-miterlimit="10"/><path stroke-linecap="round" transform="matrix(0.109553, 0, 0, -0.109535, -45.464498, 417.267837)" fill="none" stroke-linejoin="round" d="M 1564.058326 2834.69063 L 2034.934786 2834.69063 " stroke="#24265d" stroke-width="30" stroke-opacity="1" stroke-miterlimit="10"/><path stroke-linecap="round" transform="matrix(0.109553, 0, 0, -0.109535, -45.464498, 417.267837)" fill="none" stroke-linejoin="round" d="M 1564.058326 2699.816706 L 1799.496556 2699.816706 " stroke="#24265d" stroke-width="30" stroke-opacity="1" stroke-miterlimit="10"/><path stroke-linecap="round" transform="matrix(0.109553, 0, 0, -0.109535, -45.464498, 417.267837)" fill="none" stroke-linejoin="round" d="M 1564.058326 2610.839858 L 1681.830926 2610.839858 " stroke="#24265d" stroke-width="30" stroke-opacity="1" stroke-miterlimit="10"/><path stroke-linecap="round" transform="matrix(0.109553, 0, 0, -0.109535, -45.464498, 417.267837)" fill="none" stroke-linejoin="round" d="M 1564.058326 2513.553749 L 1750.362242 2513.553749 " stroke="#24265d" stroke-width="30" stroke-opacity="1" stroke-miterlimit="10"/><path stroke-linecap="round" transform="matrix(0.109553, 0, 0, -0.109535, -45.464498, 417.267837)" fill="none" stroke-linejoin="round" d="M 1564.058326 2364.308013 L 2412.605805 2364.308013 " stroke="#24265d" stroke-width="30" stroke-opacity="1" stroke-miterlimit="10"/><path stroke-linecap="round" transform="matrix(0.109553, 0, 0, -0.109535, -45.464498, 417.267837)" fill="none" stroke-linejoin="round" d="M 1564.058326 2257.928078 L 2412.605805 2257.928078 " stroke="#24265d" stroke-width="30" stroke-opacity="1" stroke-miterlimit="10"/><path stroke-linecap="round" transform="matrix(0.109553, 0, 0, -0.109535, -45.464498, 417.267837)" fill="none" stroke-linejoin="round" d="M 1564.058326 2151.548142 L 2412.605805 2151.548142 " stroke="#24265d" stroke-width="30" stroke-opacity="1" stroke-miterlimit="10"/><path stroke-linecap="round" transform="matrix(0.109553, 0, 0, -0.109535, -45.464498, 417.267837)" fill="none" stroke-linejoin="round" d="M 1564.058326 2045.132545 L 2412.605805 2045.132545 " stroke="#24265d" stroke-width="30" stroke-opacity="1" stroke-miterlimit="10"/><path stroke-linecap="round" transform="matrix(0.109553, 0, 0, -0.109535, -45.464498, 417.267837)" fill="none" stroke-linejoin="round" d="M 1564.058326 1938.752609 L 1737.525991 1938.752609 " stroke="#24265d" stroke-width="30" stroke-opacity="1" stroke-miterlimit="10"/><path stroke-linecap="round" transform="matrix(0.109553, 0, 0, -0.109535, -45.464498, 417.267837)" fill="none" stroke-linejoin="round" d="M 1564.058326 1775.919628 L 2002.523254 1775.919628 " stroke="#24265d" stroke-width="30" stroke-opacity="1" stroke-miterlimit="10"/><path stroke-linecap="round" transform="matrix(0.109553, 0, 0, -0.109535, -45.464498, 417.267837)" fill="none" stroke-linejoin="round" d="M 1564.058326 1691.257889 L 1723.441771 1691.257889 " stroke="#24265d" stroke-width="30" stroke-opacity="1" stroke-miterlimit="10"/><path stroke-linecap="round" transform="matrix(0.109553, 0, 0, -0.109535, -45.464498, 417.267837)" fill-opacity="1" fill="#ec8c3a" fill-rule="nonzero" stroke-linejoin="round" d="M 1999.563785 1805.233844 L 1258.733843 1355.677872 L 1258.733843 2254.86114 Z M 1999.563785 1805.233844 " stroke="#24265d" stroke-width="30" stroke-opacity="1" stroke-miterlimit="10"/><path stroke-linecap="round" transform="matrix(0.109553, 0, 0, -0.109535, -45.464498, 417.267837)" fill-opacity="1" fill="#f8a24b" fill-rule="nonzero" stroke-linejoin="round" d="M 2740.393727 1355.677872 L 1258.733843 1355.677872 L 1999.563785 1805.233844 Z M 2740.393727 1355.677872 " stroke="#24265d" stroke-width="30" stroke-opacity="1" stroke-miterlimit="10"/><path stroke-linecap="round" transform="matrix(0.109553, 0, 0, -0.109535, -45.464498, 417.267837)" fill-opacity="1" fill="#ec8c3a" fill-rule="nonzero" stroke-linejoin="round" d="M 2740.393727 2254.86114 L 2740.393727 1355.677872 L 1999.563785 1805.233844 Z M 2740.393727 2254.86114 " stroke="#24265d" stroke-width="30" stroke-opacity="1" stroke-miterlimit="10"/><path stroke-linecap="round" transform="matrix(0.109553, 0, 0, -0.109535, -45.464498, 417.267837)" fill="none" stroke-linejoin="round" d="M 2662.698754 2150.085998 C 2662.698754 1965.071212 2662.698754 1780.092089 2662.698754 1595.077304 " stroke="#24265d" stroke-width="30" stroke-opacity="1" stroke-miterlimit="10"/><path stroke-linecap="round" transform="matrix(0.109553, 0, 0, -0.109535, -45.464498, 417.267837)" fill="none" stroke-linejoin="round" d="M 2662.698754 1516.977385 C 2662.698754 1504.602649 2662.698754 1492.263575 2662.698754 1479.960163 " stroke="#24265d" stroke-width="30" stroke-opacity="1" stroke-miterlimit="10"/><path stroke-linecap="round" transform="matrix(0.109553, 0, 0, -0.109535, -45.464498, 417.267837)" fill="none" stroke-linejoin="round" d="M 2251.617828 1410.098181 C 2325.640207 1410.098181 2403.727398 1410.098181 2477.749776 1410.098181 " stroke="#24265d" stroke-width="30" stroke-opacity="1" stroke-miterlimit="10"/><path fill="#ef3546" d="M 249.855469 68.285156 L 305.320312 68.285156 C 307.3125 68.285156 308.925781 69.898438 308.925781 71.898438 L 308.925781 113.121094 C 308.925781 115.121094 307.3125 116.734375 305.320312 116.734375 L 267.046875 116.734375 L 252.925781 137.496094 L 252.925781 116.734375 L 249.855469 116.734375 C 247.855469 116.734375 246.242188 115.121094 246.242188 113.121094 L 246.242188 71.898438 C 246.242188 69.898438 247.855469 68.285156 249.855469 68.285156 " fill-opacity="1" fill-rule="nonzero"/><path stroke-linecap="round" transform="matrix(0.109553, 0, 0, -0.109535, -45.464498, 417.267837)" fill="none" stroke-linejoin="round" d="M 2695.680787 3186.033279 L 3201.963905 3186.033279 C 3220.148593 3186.033279 3234.874625 3171.304847 3234.874625 3153.045871 L 3234.874625 2776.704115 C 3234.874625 2758.445138 3220.148593 2743.716706 3201.963905 2743.716706 L 2852.603951 2743.716706 L 2723.706601 2554.172839 L 2723.706601 2743.716706 L 2695.680787 2743.716706 C 2677.424786 2743.716706 2662.698754 2758.445138 2662.698754 2776.704115 L 2662.698754 3153.045871 C 2662.698754 3171.304847 2677.424786 3186.033279 2695.680787 3186.033279 Z M 2695.680787 3186.033279 " stroke="#24265d" stroke-width="30" stroke-opacity="1" stroke-miterlimit="10"/><path stroke-linecap="round" transform="matrix(0.109553, 0, 0, -0.109535, -45.464498, 417.267837)" fill="none" stroke-linejoin="round" d="M 2872.67842 2802.630435 C 3055.13146 2802.630435 2950.266424 2802.630435 3132.683808 2802.630435 " stroke="#24265d" stroke-width="30" stroke-opacity="1" stroke-miterlimit="10"/><path stroke-linecap="round" transform="matrix(0.109553, 0, 0, -0.109535, -45.464498, 417.267837)" fill="none" stroke-linejoin="round" d="M 3186.132529 3095.986569 L 3186.132529 2816.217681 " stroke="#24265d" stroke-width="30" stroke-opacity="1" stroke-miterlimit="10"/><path stroke-linecap="round" transform="matrix(0.109553, 0, 0, -0.109535, -45.464498, 417.267837)" fill="none" stroke-linejoin="round" d="M 2752.552508 3139.672597 C 2811.028761 3139.672597 2969.378175 3139.672597 3027.890084 3139.672597 " stroke="#24265d" stroke-width="30" stroke-opacity="1" stroke-miterlimit="10"/><path stroke-linecap="round" transform="matrix(0.109553, 0, 0, -0.109535, -45.464498, 417.267837)" fill="none" stroke-linejoin="round" d="M 3100.343588 3139.672597 C 3114.106901 3139.672597 3131.32887 3139.672597 3145.12784 3139.672597 " stroke="#24265d" stroke-width="30" stroke-opacity="1" stroke-miterlimit="10"/><path stroke-linecap="round" transform="matrix(0.109553, 0, 0, -0.109535, -45.464498, 417.267837)" fill="none" stroke-linejoin="round" d="M 2713.794163 3102.90501 C 2713.794163 3043.705984 2713.794163 2984.578283 2713.794163 2925.41492 " stroke="#24265d" stroke-width="30" stroke-opacity="1" stroke-miterlimit="10"/><path stroke-linecap="round" transform="matrix(0.109553, 0, 0, -0.109535, -45.464498, 417.267837)" fill="none" stroke-linejoin="round" d="M 2715.256069 2870.103059 L 2715.256069 2816.217681 " stroke="#24265d" stroke-width="30" stroke-opacity="1" stroke-miterlimit="10"/><path fill="#ffffff" d="M 290.109375 82.03125 C 287.011719 78.957031 282.007812 78.972656 278.9375 82.066406 L 277.589844 83.425781 L 276.234375 82.066406 C 273.164062 78.972656 268.15625 78.957031 265.0625 82.03125 C 261.96875 85.101562 261.953125 90.109375 265.023438 93.203125 L 277.589844 105.84375 L 290.148438 93.203125 C 293.222656 90.109375 293.203125 85.101562 290.109375 82.03125 " fill-opacity="1" fill-rule="nonzero"/><path stroke-linecap="round" transform="matrix(0.109553, 0, 0, -0.109535, -45.464498, 417.267837)" fill="none" stroke-linejoin="round" d="M 3063.118461 3060.538478 C 3034.843053 3088.604522 2989.167395 3088.461874 2961.141581 3060.21752 L 2948.840174 3047.807121 L 2936.467455 3060.21752 C 2908.441641 3088.461874 2862.730326 3088.604522 2834.490575 3060.538478 C 2806.250823 3032.508096 2806.108198 2986.789331 2834.134012 2958.544977 L 2948.840174 2843.142539 L 3063.475023 2958.544977 C 3091.536493 2986.789331 3091.358212 3032.508096 3063.118461 3060.538478 Z M 3063.118461 3060.538478 " stroke="#24265d" stroke-width="30" stroke-opacity="1" stroke-miterlimit="10"/><path fill="#59c7b5" d="M 205.699219 13.699219 L 282.210938 13.699219 C 283.84375 13.699219 285.167969 15.019531 285.167969 16.65625 L 285.167969 50.382812 C 285.167969 52.015625 283.84375 53.335938 282.210938 53.335938 L 219.765625 53.335938 L 208.210938 70.324219 L 208.210938 53.335938 L 205.699219 53.335938 C 204.0625 53.335938 202.742188 52.015625 202.742188 50.382812 L 202.742188 16.65625 C 202.742188 15.019531 204.0625 13.699219 205.699219 13.699219 " fill-opacity="1" fill-rule="nonzero"/><path stroke-linecap="round" transform="matrix(0.109553, 0, 0, -0.109535, -45.464498, 417.267837)" fill="none" stroke-linejoin="round" d="M 2292.622518 3684.374954 L 2991.02152 3684.374954 C 3005.925833 3684.374954 3018.013302 3672.321177 3018.013302 3657.378772 L 3018.013302 3349.472516 C 3018.013302 3334.565774 3005.925833 3322.511996 2991.02152 3322.511996 L 2421.02068 3322.511996 L 2315.549487 3167.417682 L 2315.549487 3322.511996 L 2292.622518 3322.511996 C 2277.682548 3322.511996 2265.630735 3334.565774 2265.630735 3349.472516 L 2265.630735 3657.378772 C 2265.630735 3672.321177 2277.682548 3684.374954 2292.622518 3684.374954 Z M 2292.622518 3684.374954 " stroke="#24265d" stroke-width="30" stroke-opacity="1" stroke-miterlimit="10"/><path stroke-linecap="round" transform="matrix(0.109553, 0, 0, -0.109535, -45.464498, 417.267837)" fill="none" stroke-linejoin="round" d="M 2437.422556 3370.655782 C 2586.679625 3370.655782 2735.936695 3370.655782 2885.193765 3370.655782 " stroke="#24265d" stroke-width="30" stroke-opacity="1" stroke-miterlimit="10"/><path stroke-linecap="round" transform="matrix(0.109553, 0, 0, -0.109535, -45.464498, 417.267837)" fill="none" stroke-linejoin="round" d="M 2978.113957 3610.697131 L 2978.113957 3381.818008 " stroke="#24265d" stroke-width="30" stroke-opacity="1" stroke-miterlimit="10"/><path stroke-linecap="round" transform="matrix(0.109553, 0, 0, -0.109535, -45.464498, 417.267837)" fill="none" stroke-linejoin="round" d="M 2339.11827 3646.430519 C 2386.96896 3646.430519 2437.67215 3646.430519 2485.558496 3646.430519 " stroke="#24265d" stroke-width="30" stroke-opacity="1" stroke-miterlimit="10"/><path stroke-linecap="round" transform="matrix(0.109553, 0, 0, -0.109535, -45.464498, 417.267837)" fill="none" stroke-linejoin="round" d="M 2600.977782 3646.430519 C 2674.215723 3646.430519 2750.234852 3646.430519 2823.437137 3646.430519 " stroke="#24265d" stroke-width="30" stroke-opacity="1" stroke-miterlimit="10"/><path stroke-linecap="round" transform="matrix(0.109553, 0, 0, -0.109535, -45.464498, 417.267837)" fill="none" stroke-linejoin="round" d="M 2907.942453 3646.430519 C 2919.174173 3646.430519 2933.258392 3646.430519 2944.525768 3646.430519 " stroke="#24265d" stroke-width="30" stroke-opacity="1" stroke-miterlimit="10"/><path stroke-linecap="round" transform="matrix(0.109553, 0, 0, -0.109535, -45.464498, 417.267837)" fill="none" stroke-linejoin="round" d="M 2307.384206 3616.331737 C 2307.384206 3567.938317 2307.384206 3519.544897 2307.384206 3471.151477 " stroke="#24265d" stroke-width="30" stroke-opacity="1" stroke-miterlimit="10"/><path stroke-linecap="round" transform="matrix(0.109553, 0, 0, -0.109535, -45.464498, 417.267837)" fill="none" stroke-linejoin="round" d="M 2308.632175 3425.896318 L 2308.632175 3381.818008 " stroke="#24265d" stroke-width="30" stroke-opacity="1" stroke-miterlimit="10"/><path fill="#ffffff" d="M 275.109375 25.453125 C 275.109375 26.816406 274.003906 27.925781 272.636719 27.925781 L 216.113281 27.925781 C 214.75 27.925781 213.644531 26.816406 213.644531 25.453125 C 213.644531 24.085938 214.75 22.980469 216.113281 22.980469 L 272.636719 22.980469 C 274.003906 22.980469 275.109375 24.085938 275.109375 25.453125 " fill-opacity="1" fill-rule="nonzero"/><path stroke-linecap="round" transform="matrix(0.109553, 0, 0, -0.109535, -45.464498, 417.267837)" fill="none" stroke-linejoin="round" d="M 2926.198454 3577.067805 C 2926.198454 3564.621745 2916.107735 3554.493719 2903.628047 3554.493719 L 2387.682085 3554.493719 C 2375.238053 3554.493719 2365.147334 3564.621745 2365.147334 3577.067805 C 2365.147334 3589.549528 2375.238053 3599.641892 2387.682085 3599.641892 L 2903.628047 3599.641892 C 2916.107735 3599.641892 2926.198454 3589.549528 2926.198454 3577.067805 Z M 2926.198454 3577.067805 " stroke="#24265d" stroke-width="30" stroke-opacity="1" stroke-miterlimit="10"/><path fill="#ffffff" d="M 275.109375 33.402344 C 275.109375 34.765625 274.003906 35.875 272.636719 35.875 L 216.113281 35.875 C 214.75 35.875 213.644531 34.765625 213.644531 33.402344 C 213.644531 32.035156 214.75 30.929688 216.113281 30.929688 L 272.636719 30.929688 C 274.003906 30.929688 275.109375 32.035156 275.109375 33.402344 " fill-opacity="1" fill-rule="nonzero"/><path stroke-linecap="round" transform="matrix(0.109553, 0, 0, -0.109535, -45.464498, 417.267837)" fill="none" stroke-linejoin="round" d="M 2926.198454 3504.495506 C 2926.198454 3492.049446 2916.107735 3481.92142 2903.628047 3481.92142 L 2387.682085 3481.92142 C 2375.238053 3481.92142 2365.147334 3492.049446 2365.147334 3504.495506 C 2365.147334 3516.977229 2375.238053 3527.069592 2387.682085 3527.069592 L 2903.628047 3527.069592 C 2916.107735 3527.069592 2926.198454 3516.977229 2926.198454 3504.495506 Z M 2926.198454 3504.495506 " stroke="#24265d" stroke-width="30" stroke-opacity="1" stroke-miterlimit="10"/><path fill="#ffffff" d="M 240.71875 41.832031 C 240.71875 43.195312 239.609375 44.304688 238.242188 44.304688 L 216.113281 44.304688 C 214.75 44.304688 213.644531 43.195312 213.644531 41.832031 C 213.644531 40.464844 214.75 39.359375 216.113281 39.359375 L 238.242188 39.359375 C 239.609375 39.359375 240.71875 40.464844 240.71875 41.832031 " fill-opacity="1" fill-rule="nonzero"/><path stroke-linecap="round" transform="matrix(0.109553, 0, 0, -0.109535, -45.464498, 417.267837)" fill="none" stroke-linejoin="round" d="M 2612.280814 3427.536773 C 2612.280814 3415.090713 2602.154439 3404.962687 2589.674751 3404.962687 L 2387.682085 3404.962687 C 2375.238053 3404.962687 2365.147334 3415.090713 2365.147334 3427.536773 C 2365.147334 3440.018496 2375.238053 3450.11086 2387.682085 3450.11086 L 2589.674751 3450.11086 C 2602.154439 3450.11086 2612.280814 3440.018496 2612.280814 3427.536773 Z M 2612.280814 3427.536773 " stroke="#24265d" stroke-width="30" stroke-opacity="1" stroke-miterlimit="10"/><path fill="#fcd262" d="M 25.324219 77.640625 L 85.351562 77.640625 C 93.976562 77.640625 100.960938 86.472656 100.960938 97.359375 C 100.960938 105.535156 97.023438 112.554688 91.410156 115.539062 L 91.410156 134.042969 L 79.871094 117.082031 L 25.324219 117.082031 C 16.707031 117.082031 9.71875 108.25 9.71875 97.359375 C 9.71875 86.472656 16.707031 77.640625 25.324219 77.640625 " fill-opacity="1" fill-rule="nonzero"/><path stroke-linecap="round" transform="matrix(0.109553, 0, 0, -0.109535, -45.464498, 417.267837)" fill="none" stroke-linejoin="round" d="M 646.159439 3100.622637 L 1194.089059 3100.622637 C 1272.818062 3100.622637 1336.57144 3019.990712 1336.57144 2920.600541 C 1336.57144 2845.959842 1300.629939 2781.875114 1249.391905 2754.629298 L 1249.391905 2585.698103 L 1144.063337 2740.542783 L 646.159439 2740.542783 C 567.501747 2740.542783 503.712713 2821.174708 503.712713 2920.600541 C 503.712713 3019.990712 567.501747 3100.622637 646.159439 3100.622637 Z M 646.159439 3100.622637 " stroke="#24265d" stroke-width="30" stroke-opacity="1" stroke-miterlimit="10"/><path stroke-linecap="round" transform="matrix(0.109553, 0, 0, -0.109535, -45.464498, 417.267837)" fill="none" stroke-linejoin="round" d="M 1127.48318 2788.936203 C 978.226111 2788.936203 829.040354 2788.936203 679.711971 2788.936203 " stroke="#24265d" stroke-width="30" stroke-opacity="1" stroke-miterlimit="10"/><path stroke-linecap="round" transform="matrix(0.109553, 0, 0, -0.109535, -45.464498, 417.267837)" fill="none" stroke-linejoin="round" d="M 586.791779 3028.977552 C 503.712713 2920.600541 556.412653 2832.408258 586.791779 2800.098429 " stroke="#24265d" stroke-width="30" stroke-opacity="1" stroke-miterlimit="10"/><path stroke-linecap="round" transform="matrix(0.109553, 0, 0, -0.109535, -45.464498, 417.267837)" fill="none" stroke-linejoin="round" d="M 1160.358244 3054.333279 C 1112.471898 3054.333279 1061.804365 3054.333279 1013.918019 3054.333279 " stroke="#24265d" stroke-width="30" stroke-opacity="1" stroke-miterlimit="10"/><path stroke-linecap="round" transform="matrix(0.109553, 0, 0, -0.109535, -45.464498, 417.267837)" fill="none" stroke-linejoin="round" d="M 963.927954 3054.333279 C 890.725669 3054.333279 814.670884 3054.333279 741.468599 3054.333279 " stroke="#24265d" stroke-width="30" stroke-opacity="1" stroke-miterlimit="10"/><path stroke-linecap="round" transform="matrix(0.109553, 0, 0, -0.109535, -45.464498, 417.267837)" fill="none" stroke-linejoin="round" d="M 689.695722 3054.333279 C 678.428346 3054.333279 658.389533 3054.333279 647.122157 3054.333279 " stroke="#24265d" stroke-width="30" stroke-opacity="1" stroke-miterlimit="10"/><path stroke-linecap="round" transform="matrix(0.109553, 0, 0, -0.109535, -45.464498, 417.267837)" fill="none" stroke-linejoin="round" d="M 1196.656309 3054.333279 C 1312.289533 3021.096236 1293.39172 2896.457324 1293.39172 2896.457324 " stroke="#24265d" stroke-width="30" stroke-opacity="1" stroke-miterlimit="10"/><path stroke-linecap="round" transform="matrix(0.109553, 0, 0, -0.109535, -45.464498, 417.267837)" fill="none" stroke-linejoin="round" d="M 1287.686719 2865.395667 C 1279.271844 2815.754074 1249.391905 2802.915732 1249.391905 2802.915732 " stroke="#24265d" stroke-width="30" stroke-opacity="1" stroke-miterlimit="10"/><path fill="#ffffff" d="M 66.976562 98.023438 C 66.976562 100.945312 69.34375 103.316406 72.265625 103.316406 C 75.1875 103.316406 77.558594 100.945312 77.558594 98.023438 C 77.558594 95.101562 75.1875 92.730469 72.265625 92.730469 C 69.34375 92.730469 66.976562 95.101562 66.976562 98.023438 " fill-opacity="1" fill-rule="nonzero"/><path stroke-linecap="round" transform="matrix(0.109553, 0, 0, -0.109535, -45.464498, 417.267837)" fill="none" stroke-linejoin="round" d="M 1026.362051 2914.53799 C 1026.362051 2887.862767 1047.969739 2866.215894 1074.640615 2866.215894 C 1101.311492 2866.215894 1122.954836 2887.862767 1122.954836 2914.53799 C 1122.954836 2941.213214 1101.311492 2962.860086 1074.640615 2962.860086 C 1047.969739 2962.860086 1026.362051 2941.213214 1026.362051 2914.53799 Z M 1026.362051 2914.53799 " stroke="#24265d" stroke-width="30" stroke-opacity="1" stroke-miterlimit="10"/><path fill="#ffffff" d="M 48.238281 98.023438 C 48.238281 100.945312 50.609375 103.316406 53.53125 103.316406 C 56.453125 103.316406 58.820312 100.945312 58.820312 98.023438 C 58.820312 95.101562 56.453125 92.730469 53.53125 92.730469 C 50.609375 92.730469 48.238281 95.101562 48.238281 98.023438 " fill-opacity="1" fill-rule="nonzero"/><path stroke-linecap="round" transform="matrix(0.109553, 0, 0, -0.109535, -45.464498, 417.267837)" fill="none" stroke-linejoin="round" d="M 855.319011 2914.53799 C 855.319011 2887.862767 876.962356 2866.215894 903.633232 2866.215894 C 930.304108 2866.215894 951.911797 2887.862767 951.911797 2914.53799 C 951.911797 2941.213214 930.304108 2962.860086 903.633232 2962.860086 C 876.962356 2962.860086 855.319011 2941.213214 855.319011 2914.53799 Z M 855.319011 2914.53799 " stroke="#24265d" stroke-width="30" stroke-opacity="1" stroke-miterlimit="10"/><path fill="#ffffff" d="M 29.496094 98.023438 C 29.496094 100.945312 31.867188 103.316406 34.792969 103.316406 C 37.714844 103.316406 40.085938 100.945312 40.085938 98.023438 C 40.085938 95.101562 37.714844 92.730469 34.792969 92.730469 C 31.867188 92.730469 29.496094 95.101562 29.496094 98.023438 " fill-opacity="1" fill-rule="nonzero"/><path stroke-linecap="round" transform="matrix(0.109553, 0, 0, -0.109535, -45.464498, 417.267837)" fill="none" stroke-linejoin="round" d="M 684.240315 2914.53799 C 684.240315 2887.862767 705.88366 2866.215894 732.590193 2866.215894 C 759.261069 2866.215894 780.904414 2887.862767 780.904414 2914.53799 C 780.904414 2941.213214 759.261069 2962.860086 732.590193 2962.860086 C 705.88366 2962.860086 684.240315 2941.213214 684.240315 2914.53799 Z M 684.240315 2914.53799 " stroke="#24265d" stroke-width="30" stroke-opacity="1" stroke-miterlimit="10"/><path fill="#59c7b5" d="M 89.324219 6.628906 L 146.035156 6.628906 C 148.070312 6.628906 149.726562 8.28125 149.726562 10.324219 L 149.726562 52.476562 C 149.726562 54.511719 148.070312 56.167969 146.035156 56.167969 L 124.898438 56.167969 L 117.003906 77.390625 L 110.460938 56.167969 L 89.324219 56.167969 C 87.28125 56.167969 85.632812 54.511719 85.632812 52.476562 L 85.632812 10.324219 C 85.632812 8.28125 87.28125 6.628906 89.324219 6.628906 " fill-opacity="1" fill-rule="nonzero"/><g clip-path="url(#d8a9b8c035)"><path stroke-linecap="round" transform="matrix(0.109553, 0, 0, -0.109535, -45.464498, 417.267837)" fill="none" stroke-linejoin="round" d="M 1230.351467 3748.923289 L 1748.008929 3748.923289 C 1766.585836 3748.923289 1781.704087 3733.838237 1781.704087 3715.186977 L 1781.704087 3330.35765 C 1781.704087 3311.777715 1766.585836 3296.657 1748.008929 3296.657 L 1555.072951 3296.657 L 1483.011666 3102.90501 L 1423.287445 3296.657 L 1230.351467 3296.657 C 1211.703247 3296.657 1196.656309 3311.777715 1196.656309 3330.35765 L 1196.656309 3715.186977 C 1196.656309 3733.838237 1211.703247 3748.923289 1230.351467 3748.923289 Z M 1230.351467 3748.923289 " stroke="#24265d" stroke-width="30" stroke-opacity="1" stroke-miterlimit="10"/></g><path stroke-linecap="round" transform="matrix(0.109553, 0, 0, -0.109535, -45.464498, 417.267837)" fill="none" stroke-linejoin="round" d="M 1411.378257 3356.890226 C 1597.896109 3356.890226 1490.67776 3356.890226 1677.195613 3356.890226 " stroke="#24265d" stroke-width="30" stroke-opacity="1" stroke-miterlimit="10"/><path stroke-linecap="round" transform="matrix(0.109553, 0, 0, -0.109535, -45.464498, 417.267837)" fill="none" stroke-linejoin="round" d="M 1731.820991 3656.843841 L 1731.820991 3370.79843 " stroke="#24265d" stroke-width="30" stroke-opacity="1" stroke-miterlimit="10"/><path stroke-linecap="round" transform="matrix(0.109553, 0, 0, -0.109535, -45.464498, 417.267837)" fill="none" stroke-linejoin="round" d="M 1288.471157 3701.492745 C 1348.266691 3701.492745 1510.18173 3701.492745 1570.048577 3701.492745 " stroke="#24265d" stroke-width="30" stroke-opacity="1" stroke-miterlimit="10"/><path stroke-linecap="round" transform="matrix(0.109553, 0, 0, -0.109535, -45.464498, 417.267837)" fill="none" stroke-linejoin="round" d="M 1644.106611 3701.492745 C 1658.190831 3701.492745 1675.769363 3701.492745 1689.889239 3701.492745 " stroke="#24265d" stroke-width="30" stroke-opacity="1" stroke-miterlimit="10"/><path stroke-linecap="round" transform="matrix(0.109553, 0, 0, -0.109535, -45.464498, 417.267837)" fill="none" stroke-linejoin="round" d="M 1248.857061 3663.869268 C 1248.857061 3603.42207 1248.857061 3542.939211 1248.857061 3482.456351 " stroke="#24265d" stroke-width="30" stroke-opacity="1" stroke-miterlimit="10"/><path stroke-linecap="round" transform="matrix(0.109553, 0, 0, -0.109535, -45.464498, 417.267837)" fill="none" stroke-linejoin="round" d="M 1250.425936 3425.896318 L 1250.425936 3370.79843 " stroke="#24265d" stroke-width="30" stroke-opacity="1" stroke-miterlimit="10"/><path fill="#ffffff" d="M 133.390625 27.726562 C 132.679688 25.414062 130.527344 23.730469 127.980469 23.730469 C 127.605469 23.730469 127.234375 23.769531 126.875 23.839844 C 126.308594 21.484375 124.1875 19.734375 121.664062 19.734375 C 119.519531 19.734375 117.675781 20.992188 116.8125 22.808594 C 115.554688 21.964844 114.042969 21.46875 112.410156 21.46875 C 108.039062 21.46875 104.492188 25.015625 104.492188 29.386719 C 104.492188 30.40625 104.691406 31.378906 105.042969 32.273438 C 104.59375 32.148438 104.117188 32.070312 103.628906 32.070312 C 100.738281 32.070312 98.398438 34.414062 98.398438 37.304688 C 98.398438 40.191406 100.738281 42.925781 103.628906 42.925781 L 130.359375 42.925781 C 134.730469 42.925781 138.277344 39.414062 138.277344 35.039062 C 138.277344 31.742188 136.257812 28.917969 133.390625 27.726562 " fill-opacity="1" fill-rule="nonzero"/><path stroke-linecap="round" transform="matrix(0.109553, 0, 0, -0.109535, -45.464498, 417.267837)" fill="none" stroke-linejoin="round" d="M 1632.589642 3556.312485 C 1626.100204 3577.424426 1606.45361 3592.794775 1583.205734 3592.794775 C 1579.782733 3592.794775 1576.395389 3592.438155 1573.115014 3591.796238 C 1567.944858 3613.300462 1548.583513 3629.277066 1525.549575 3629.277066 C 1505.974292 3629.277066 1489.144542 3617.793882 1481.26451 3601.211022 C 1469.783197 3608.914028 1455.984227 3613.44311 1441.079914 3613.44311 C 1401.180569 3613.44311 1368.804692 3581.061957 1368.804692 3541.156108 C 1368.804692 3531.848309 1370.623161 3522.968455 1373.832223 3514.801843 C 1369.731755 3515.943029 1365.381692 3516.65627 1360.92466 3516.65627 C 1334.539034 3516.65627 1313.180939 3495.259032 1313.180939 3468.869105 C 1313.180939 3442.51484 1334.539034 3417.551396 1360.92466 3417.551396 L 1604.920391 3417.551396 C 1644.819736 3417.551396 1677.195613 3449.611591 1677.195613 3489.553102 C 1677.195613 3519.651883 1658.761331 3545.435555 1632.589642 3556.312485 Z M 1632.589642 3556.312485 " stroke="#24265d" stroke-width="30" stroke-opacity="1" stroke-miterlimit="10"/></svg>